<?xml version="1.0" encoding="UTF-8" standalone="no"?>
<svg
   xmlns:dc="http://purl.org/dc/elements/1.1/"
   xmlns:cc="http://creativecommons.org/ns#"
   xmlns:rdf="http://www.w3.org/1999/02/22-rdf-syntax-ns#"
   xmlns:svg="http://www.w3.org/2000/svg"
   xmlns="http://www.w3.org/2000/svg"
   xmlns:xlink="http://www.w3.org/1999/xlink"
   version="1.1"
   id="svg2"
   viewBox="0 0 2258.7192 1148.5169"
   height="324.13699mm"
   width="637.46075mm">
  <defs
     id="defs4">
    <linearGradient
       xlink:href="#linearGradient4193"
       id="linearGradient4199"
       x1="291.7804"
       y1="271.65247"
       x2="291.7804"
       y2="1213.2357"
       gradientUnits="userSpaceOnUse"
       gradientTransform="matrix(1.9041172,0,0,2.1052008,-187.06201,-508.97197)" />
    <linearGradient
       id="linearGradient4193">
      <stop
         style="stop-color:#58b8c5;stop-opacity:1;"
         offset="0"
         id="stop4195" />
      <stop
         id="stop4207"
         offset="0.01243147"
         style="stop-color:#87c7c7;stop-opacity:1;" />
      <stop
         id="stop4201"
         offset="0.08795706"
         style="stop-color:#bcd8ca;stop-opacity:1" />
      <stop
         style="stop-color:#95d1c7;stop-opacity:1;"
         offset="0.25471801"
         id="stop4205" />
      <stop
         style="stop-color:#02bbc0;stop-opacity:1"
         offset="0.47571191"
         id="stop4203" />
      <stop
         style="stop-color:#58b8c5;stop-opacity:0;"
         offset="1"
         id="stop4197" />
    </linearGradient>
    <filter
       style="color-interpolation-filters:sRGB"
       id="filter5238"
       x="-0.36751035"
       width="1.7350208"
       y="-0.33823487"
       height="1.6764697">
      <feGaussianBlur
         stdDeviation="0.23074736"
         id="feGaussianBlur5240" />
    </filter>
    <filter
       style="color-interpolation-filters:sRGB"
       id="filter5230"
       x="-0.21359999"
       width="1.4272"
       y="-0.21359999"
       height="1.4272">
      <feGaussianBlur
         stdDeviation="0.059359912"
         id="feGaussianBlur5232" />
    </filter>
    <filter
       style="color-interpolation-filters:sRGB"
       id="filter4520"
       x="-0.098822393"
       width="1.1976448"
       y="-0.23536877"
       height="1.4707375">
      <feGaussianBlur
         stdDeviation="1.9338241"
         id="feGaussianBlur4522" />
    </filter>
    <filter
       style="color-interpolation-filters:sRGB"
       id="filter4357"
       x="-0.054649025"
       width="1.109298"
       y="-0.23674613"
       height="1.4734923">
      <feGaussianBlur
         stdDeviation="4.0669992"
         id="feGaussianBlur4359" />
    </filter>
    <linearGradient
       xlink:href="#linearGradient4231"
       id="linearGradient4237"
       x1="395.63574"
       y1="403.57477"
       x2="397.50577"
       y2="365.85352"
       gradientUnits="userSpaceOnUse" />
    <linearGradient
       id="linearGradient4231">
      <stop
         style="stop-color:#0d9191;stop-opacity:1;"
         offset="0"
         id="stop4233" />
      <stop
         style="stop-color:#0d9191;stop-opacity:0;"
         offset="1"
         id="stop4235" />
    </linearGradient>
    <filter
       style="color-interpolation-filters:sRGB"
       id="filter4297"
       x="-0.085933276"
       width="1.1718667"
       y="-1.8920951"
       height="4.7841902">
      <feGaussianBlur
         stdDeviation="3.1771502"
         id="feGaussianBlur4299" />
    </filter>
    <filter
       style="color-interpolation-filters:sRGB"
       id="filter4765"
       x="-0.078629404"
       width="1.1572587"
       y="-0.85397035"
       height="2.7079408">
      <feGaussianBlur
         stdDeviation="4.1166207"
         id="feGaussianBlur4767" />
    </filter>
    <filter
       style="color-interpolation-filters:sRGB"
       id="filter4329"
       x="-0.092657723"
       width="1.1853154"
       y="-0.49307141"
       height="1.9861428">
      <feGaussianBlur
         stdDeviation="2.0623814"
         id="feGaussianBlur4331" />
    </filter>
    <filter
       style="color-interpolation-filters:sRGB"
       id="filter4604"
       x="-0.82772541"
       width="2.6554508"
       y="-0.03307052"
       height="1.066141">
      <feGaussianBlur
         stdDeviation="0.58294041"
         id="feGaussianBlur4606" />
    </filter>
    <filter
       style="color-interpolation-filters:sRGB"
       id="filter4908"
       x="-0.92547911"
       width="2.8509583"
       y="-0.036976125"
       height="1.0739522">
      <feGaussianBlur
         stdDeviation="0.65178522"
         id="feGaussianBlur4910" />
    </filter>
    <filter
       style="color-interpolation-filters:sRGB"
       id="filter4882"
       x="-0.015798319"
       width="1.0315965"
       y="-0.085454538"
       height="1.170909">
      <feGaussianBlur
         stdDeviation="0.21567417"
         id="feGaussianBlur4884" />
    </filter>
    <filter
       style="color-interpolation-filters:sRGB"
       id="filter4787"
       x="-0.041280437"
       width="1.0825609"
       y="-0.44833443"
       height="1.8966688">
      <feGaussianBlur
         stdDeviation="2.1612259"
         id="feGaussianBlur4789" />
    </filter>
    <filter
       style="color-interpolation-filters:sRGB"
       id="filter4971"
       x="-0.14819404"
       width="1.2963881"
       y="-0.18458562"
       height="1.3691711">
      <feGaussianBlur
         stdDeviation="0.37533093"
         id="feGaussianBlur4973" />
    </filter>
    <filter
       style="color-interpolation-filters:sRGB"
       id="filter4853"
       x="-0.10957091"
       width="1.2191418"
       y="-0.087339133"
       height="1.1746783">
      <feGaussianBlur
         stdDeviation="0.12221465"
         id="feGaussianBlur4855" />
    </filter>
    <filter
       height="1.1919563"
       y="-0.095978163"
       width="1.04431"
       x="-0.022155009"
       id="filter4304"
       style="color-interpolation-filters:sRGB">
      <feGaussianBlur
         id="feGaussianBlur4306"
         stdDeviation="1.6487835" />
    </filter>
    <linearGradient
       xlink:href="#linearGradient4193"
       id="linearGradient4199-8"
       x1="291.7804"
       y1="271.65247"
       x2="291.7804"
       y2="1213.2357"
       gradientUnits="userSpaceOnUse"
       gradientTransform="matrix(1,0,0,1.1056046,-1366.9858,-313.21004)" />
  </defs>
  <metadata
     id="metadata7">
    <rdf:RDF>
      <cc:Work
         rdf:about="">
        <dc:format>image/svg+xml</dc:format>
        <dc:type
           rdf:resource="http://purl.org/dc/dcmitype/StillImage" />
        <dc:title></dc:title>
      </cc:Work>
    </rdf:RDF>
  </metadata>
  <g
     transform="translate(967.63408,-89.6061)"
     id="layer1">
    <g
       id="g5369"
       transform="translate(-109.32524,25.13705)">
      <path
         id="rect4191"
         d="m -858.30884,64.46905 2258.03654,0 0,1148.51695 -2254.22831,0 z"
         style="opacity:1;fill:url(#linearGradient4199);fill-opacity:1;stroke:none;stroke-width:2.5;stroke-linecap:round;stroke-linejoin:round;stroke-miterlimit:4;stroke-dasharray:none;stroke-dashoffset:0;stroke-opacity:0.29479771" />
      <path
         style="fill:#4aa9a9;fill-opacity:1;fill-rule:evenodd;stroke:none;stroke-width:1px;stroke-linecap:butt;stroke-linejoin:miter;stroke-opacity:1"
         d="m -857.78176,403.28045 c 2.58023,-25.80235 222.34628,7.14623 368.61815,4.21608 124.73325,-2.49868 444.88549,-34.68196 506.301,-34.68196 61.41551,0 120.89235,26.65764 182.30778,26.65764 61.41563,0 120.89243,-26.65764 182.30803,-26.65764 61.4154,0 120.8922,26.65764 182.3078,26.65764 61.4155,0 120.8924,-26.65764 182.3078,-26.65764 61.4155,0 284.5884,36.28682 346.0038,36.28682 61.4156,0 308.0378,-17.24564 308.0378,-17.24564 l 0,821.13025 -2258.03658,0 z"
         id="path4209" />
      <g
         id="g5242"
         style="opacity:0.64800002"
         transform="translate(0.7127985,-13.930802)">
        <g
           style="stroke:#eef4f4;stroke-opacity:0.45882359"
           id="g4987" />
        <g
           id="g5555">
          <path
             style="fill:#89d5d1;fill-opacity:1;fill-rule:evenodd;stroke:none;stroke-width:1px;stroke-linecap:butt;stroke-linejoin:miter;stroke-opacity:1"
             d="M 74.759738,527.48655 C 161.41263,490.51285 200.06612,497.84629 255.75511,489.45466 l 74.43373,13.11197 c -9.17359,27.94612 -83.56705,77.98128 -123.39346,82.19088 C 108.49562,595.14768 95.940645,566.46366 74.759738,527.48655 Z"
             id="path4977" />
          <path
             transform="translate(1.5e-6,0)"
             id="path4979"
             d="m 82.763934,541.4957 c 80.102116,2.40287 159.025106,0.67698 239.127216,-26.04984"
             style="opacity:0.64800002;fill:none;fill-rule:evenodd;stroke:#eef4f4;stroke-width:1px;stroke-linecap:round;stroke-linejoin:miter;stroke-opacity:0.45882359" />
          <path
             transform="translate(1.5e-6,0)"
             style="opacity:0.64800002;fill:none;fill-rule:evenodd;stroke:#eef4f4;stroke-width:1px;stroke-linecap:round;stroke-linejoin:miter;stroke-opacity:0.45882359"
             d="m 91.995254,555.4957 c 77.389286,2.8427 131.467536,4.96902 216.459356,-25.6394"
             id="path4981" />
          <path
             transform="translate(1.5e-6,0)"
             id="path4983"
             d="m 106.61091,570.31658 c 78.21739,3.47109 100.45225,2.39551 183.28024,-24.87072"
             style="opacity:0.64800002;fill:none;fill-rule:evenodd;stroke:#eef4f4;stroke-width:1px;stroke-linecap:round;stroke-linejoin:miter;stroke-opacity:0.45882359" />
          <path
             transform="translate(1.5e-6,0)"
             style="opacity:0.64800002;fill:none;fill-rule:evenodd;stroke:#eef4f4;stroke-width:1px;stroke-linecap:round;stroke-linejoin:miter;stroke-opacity:0.45882359"
             d="m 123.17437,579.4957 c 81.40114,0.64893 66.95875,2.60375 145.28024,-19.84462"
             id="path4985" />
          <path
             style="fill:#197790;fill-opacity:1;fill-rule:evenodd;stroke:none;stroke-width:1px;stroke-linecap:butt;stroke-linejoin:miter;stroke-opacity:1"
             d="m 330.11628,502.60291 c 0,0 -21.45067,-54.22232 -45.16734,-66.97226 -50.30235,-27.04223 -118.60025,-23.50681 -171.3244,-1.5575 -26.776008,11.14698 -46.843069,36.84352 -60.742282,62.29979 -16.596759,30.3968 -23.362418,101.23714 -23.362418,101.23714 -23.9745022,37.92513 -36.7635315,9.29476 -45.58938,86.37569 29.045008,-3.28437 34.49285,0.0323 44.509418,-20.88235 l 7.27793,-21.04794 c 0,0 6.274571,16.64373 11.898,25.81941 24.857706,40.56003 23.126294,34.426 28.692888,-4.42498 0,0 -18.88195,-31.34088 -19.19646,-49.39732 -0.319491,-18.34244 17.574946,-70.78584 17.574946,-70.78584 11.76155,-39.86167 60.434488,17.14852 110.823628,-20.32594 -26.0686,20.9632 -18.22733,36.38348 -34.92287,82.87919 82.94787,-45.10472 92.79094,-70.67521 102.14262,-100.55313 0,0 33.07428,2.63168 47.66234,4.7655 10.79989,1.57972 29.72338,-7.42946 29.72338,-7.42946 z"
             id="path4975" />
        </g>
        <path
           id="path5044"
           d="m 266.06381,491.06696 c 1.71541,-0.19229 3.49503,-0.30202 5.87706,0.36278 3.26922,0.70138 3.43533,1.40275 4.67988,2.10413 -0.81694,0.1571 -1.0771,0.39986 -5.51428,0 -3.83025,-0.89164 -4.04351,-1.6666 -5.04266,-2.46691 z"
           style="fill:#177088;fill-opacity:1;fill-rule:evenodd;stroke:none;stroke-width:1px;stroke-linecap:butt;stroke-linejoin:miter;stroke-opacity:1" />
        <path
           id="path5048"
           d="m 268.13167,493.06225 6.09472,1.37858 c -1.2261,1.59074 -1.64934,2.73542 -3.66409,2.06785 -2.1286,-0.70529 -1.62275,-1.76279 -2.43063,-3.44643 z"
           style="fill:#1a6e81;fill-opacity:1;fill-rule:evenodd;stroke:none;stroke-width:1px;stroke-linecap:butt;stroke-linejoin:miter;stroke-opacity:1" />
        <path
           transform="matrix(2.136748,0,0,1.366129,-308.72899,-181.00079)"
           id="path5050"
           d="m 270.59858,494.11432 0.3265,0.58045 c 0,0 -0.37762,0.12715 -0.39906,0.29023 -0.0426,0.32394 0.29306,0.71722 0.61673,0.76184 0.35233,0.0486 0.75271,-0.28121 0.87068,-0.61673 0.0876,-0.24916 -0.21767,-0.76184 -0.21767,-0.76184 z"
           style="opacity:0.76700003;fill:#89d5d1;fill-opacity:1;fill-rule:evenodd;stroke:none;stroke-width:1px;stroke-linecap:butt;stroke-linejoin:miter;stroke-opacity:1;filter:url(#filter5238)" />
        <g
           style="stroke:#4aa9a9;stroke-opacity:1"
           id="g5036">
          <g
             id="g5011"
             style="opacity:0.38699999;stroke:#4aa9a9;stroke-opacity:1">
            <path
               style="opacity:1;fill:none;fill-rule:evenodd;stroke:#4aa9a9;stroke-width:1px;stroke-linecap:round;stroke-linejoin:round;stroke-opacity:0.43529412"
               d="m 266.52191,492.39814 c 0.84366,4.02524 5.40226,7.12551 9.42754,2.13827"
               id="path5007" />
            <path
               id="path5005"
               d="m 265.55592,491.35719 c 3.44892,1.56631 4.32474,3.4007 11.53644,2.4669"
               style="opacity:1;fill:none;fill-rule:evenodd;stroke:#367b7b;stroke-width:1px;stroke-linecap:round;stroke-linejoin:round;stroke-opacity:1" />
          </g>
          <path
             style="fill:none;fill-rule:evenodd;stroke:#18738b;stroke-width:0.30000001;stroke-linecap:round;stroke-linejoin:miter;stroke-miterlimit:4;stroke-dasharray:none;stroke-opacity:1"
             d="m 266.31776,490.92185 c 4.65353,-0.063 8.45419,1.08474 10.32757,2.59593"
             id="path5028" />
          <path
             id="path5032"
             d="m 265.66475,491.36189 c 4.36226,3.70095 9.68128,2.51379 11.39134,2.6483"
             style="fill:none;fill-rule:evenodd;stroke:#327982;stroke-width:0.30000001;stroke-linecap:round;stroke-linejoin:miter;stroke-miterlimit:4;stroke-dasharray:none;stroke-opacity:0.91764712" />
          <path
             style="opacity:0.44100001;fill:none;fill-rule:evenodd;stroke:#439999;stroke-width:0.30000001;stroke-linecap:round;stroke-linejoin:miter;stroke-miterlimit:4;stroke-dasharray:none;stroke-opacity:0.61764706"
             d="m 266.57171,492.70888 c 2.14929,7.58271 7.35947,4.40026 9.25092,2.24924"
             id="path5034" />
        </g>
        <circle
           transform="matrix(1.3811157,0,0,1.3811157,-103.29834,-188.98477)"
           r="0.33348265"
           cy="495.58688"
           cx="271.51788"
           id="path5196"
           style="opacity:0.5;fill:#d8d8d8;fill-opacity:1;stroke:none;stroke-width:0.30000001;stroke-linecap:round;stroke-linejoin:round;stroke-miterlimit:4;stroke-dasharray:none;stroke-dashoffset:0;stroke-opacity:0.91764712;filter:url(#filter5230)" />
      </g>
      <path
         style="opacity:0.525;fill:#009696;fill-opacity:1;stroke:none;stroke-width:1.56200004;stroke-linecap:round;stroke-linejoin:round;stroke-miterlimit:4;stroke-dasharray:none;stroke-dashoffset:0;stroke-opacity:1"
         d="m 158.21891,393.75934 9.85122,-2.57143 -3.94631,20.92609 -8.45691,-4.90714 z"
         id="rect4610" />
      <path
         style="opacity:0.45800003;fill:#028790;fill-opacity:0.48128345;fill-rule:evenodd;stroke:none;stroke-width:1px;stroke-linecap:butt;stroke-linejoin:miter;stroke-opacity:1"
         d="m -341.24489,402.04205 333.28935,809.92205 204.49884,0.06 -338.35288,-823.84274 c -57.47456,3.47713 -41.69573,10.42643 -199.43531,13.86053 z"
         id="path4211" />
      <path
         id="path4213"
         d="m -141.80958,388.18152 335.69054,819.97428 207.20184,0 L 35.8696,374.86392 c -26.17681,-2.80349 -129.33128,6.78237 -177.67918,13.3176 z"
         style="opacity:0.50400002;fill:#01989f;fill-opacity:0.41711228;fill-rule:evenodd;stroke:none;stroke-width:1px;stroke-linecap:butt;stroke-linejoin:miter;stroke-opacity:1" />
      <path
         id="path4215"
         d="m 366.3873,374.69375 335.559,838.29225 207.2018,0 L 566.9575,403.22496 C 513.5723,398.51159 437.6666,373.78575 366.3873,374.69375 Z"
         style="opacity:0.45800003;fill:#028790;fill-opacity:0.48128345;fill-rule:evenodd;stroke:none;stroke-width:1px;stroke-linecap:butt;stroke-linejoin:miter;stroke-opacity:1" />
      <path
         style="opacity:0.50400002;fill:#01989f;fill-opacity:0.41711228;fill-rule:evenodd;stroke:none;stroke-width:1px;stroke-linecap:butt;stroke-linejoin:miter;stroke-opacity:1"
         d="m 566.9575,403.22496 336.8252,809.76104 207.2019,0 -365.2132,-837.10016 c -62.8631,3.95453 -130.4661,20.80389 -178.8139,27.33912 z"
         id="path4217" />
      <path
         style="opacity:0.52100004;fill:#593832;fill-opacity:1;fill-rule:evenodd;stroke:none;stroke-width:1.06652594px;stroke-linecap:butt;stroke-linejoin:miter;stroke-opacity:1"
         d="m 139.54434,384.28288 c 41.83771,5.37725 83.67542,4.53169 125.51313,-1.68414 0,0 -47.03722,15.36011 -67.90487,15.75708 -21.87353,0.41611 -57.60826,-14.07294 -57.60826,-14.07294 z"
         id="path4253" />
      <path
         id="path4498"
         d="m 162.41016,376.55273 0,19.71875 29.37109,0 0,-14.44726 11.78906,0 0,14.44726 5.80469,0 0,-19.71875 -46.96484,0 z m 12.41406,2.51172 a 4.1829371,4.1829371 0 0 1 4.18359,4.1836 4.1829371,4.1829371 0 0 1 -4.18359,4.18164 4.1829371,4.1829371 0 0 1 -4.1836,-4.18164 4.1829371,4.1829371 0 0 1 4.1836,-4.1836 z"
         style="opacity:1;fill:#4d4d4d;fill-opacity:1;stroke:none;stroke-width:1;stroke-linecap:round;stroke-linejoin:round;stroke-miterlimit:4;stroke-dasharray:none;stroke-dashoffset:0;stroke-opacity:1;filter:url(#filter4520)"
         transform="matrix(0.96518007,0,0,1.0067085,6.9837335,-2.5922658)" />
      <rect
         style="opacity:0.52100004;fill:#929b9a;fill-opacity:1;stroke:none;stroke-width:1.56200004;stroke-linecap:round;stroke-linejoin:round;stroke-miterlimit:4;stroke-dasharray:none;stroke-dashoffset:0;stroke-opacity:1"
         id="rect4568"
         width="12.675567"
         height="8.956461"
         x="379.25793"
         y="-179.22701"
         transform="matrix(0,1,-1,0,0,0)" />
      <path
         style="opacity:1;fill:#d2dfde;fill-opacity:1;stroke:none;stroke-width:1;stroke-linecap:round;stroke-linejoin:round;stroke-miterlimit:4;stroke-dasharray:none;stroke-dashoffset:0;stroke-opacity:1"
         d="m 162.41016,376.55273 0,19.71875 29.37109,0 0,-14.44726 11.78906,0 0,14.44726 5.80469,0 0,-19.71875 -46.96484,0 z m 12.41406,2.51172 a 4.1829371,4.1829371 0 0 1 4.18359,4.1836 4.1829371,4.1829371 0 0 1 -4.18359,4.18164 4.1829371,4.1829371 0 0 1 -4.1836,-4.18164 4.1829371,4.1829371 0 0 1 4.1836,-4.1836 z"
         id="rect4303" />
      <g
         transform="matrix(0.70272635,0,0,0.70272635,-80.62092,119.24432)"
         id="g4347"
         style="opacity:0.72100004;fill:#4d4d4d;filter:url(#filter4304)">
        <path
           style="fill:#4d4d4d;fill-opacity:1;fill-rule:evenodd;stroke:#88564d;stroke-width:1.42302907;stroke-linecap:butt;stroke-linejoin:round;stroke-miterlimit:4;stroke-dasharray:none;stroke-opacity:1"
           d="m 313.30156,376.86791 c 0,0 14.66875,23.11762 30.1598,29.44276 36.06834,14.72703 105.79585,7.11678 116.87725,0 11.47261,-7.36803 20.09917,-13.15884 31.57178,-31.54969 -50.50005,12.33494 -99.52386,20.28316 -178.60883,2.10693 z"
           id="path4349" />
        <path
           style="fill:#4d4d4d;fill-opacity:1;fill-rule:evenodd;stroke:none;stroke-width:1px;stroke-linecap:butt;stroke-linejoin:miter;stroke-opacity:1"
           d="m 322.25958,390.57929 c 52.25249,9.95543 105.34465,7.98264 158.94612,-0.94757 0.0401,0.0201 -6.77666,12.24744 -30.20904,22.10735 0,0 -73.34034,11.74109 -107.4888,-3.80267 -8.3969,-3.82212 -21.24828,-17.35711 -21.24828,-17.35711 z"
           id="path4351" />
      </g>
      <rect
         y="381.4361"
         x="191.49448"
         height="16.748461"
         width="12.361959"
         id="rect4363"
         style="opacity:0.33800001;fill:#333333;fill-opacity:1;stroke:none;stroke-width:1;stroke-linecap:round;stroke-linejoin:round;stroke-miterlimit:4;stroke-dasharray:none;stroke-dashoffset:0;stroke-opacity:0.4545455" />
      <path
         style="opacity:0.09299999;fill:#b4d7c9;fill-opacity:1;fill-rule:evenodd;stroke:none;stroke-width:1px;stroke-linecap:butt;stroke-linejoin:miter;stroke-opacity:1"
         d="m 145.69298,416.1889 c 1.39828,-6.86736 30.76385,-7.54585 30.76385,-7.54585 0,0 16.99176,2.24649 25.5398,2.3218 7.95372,0.0701 23.79846,-1.74135 23.79846,-1.74135 0,0 23.50431,2.61045 23.218,9.2872 -0.36445,8.49886 -7.72976,7.63952 -12.7699,8.70675 -13.66276,2.89303 -32.76016,-7.11951 -41.21196,-7.54585 -6.98067,-0.35213 -30.76385,6.9654 -30.76385,6.9654 0,0 -19.99173,-3.48716 -18.5744,-10.4481 z"
         id="path5312" />
      <g
         id="g4247"
         transform="matrix(0.70272635,0,0,0.70272635,-80.62092,119.24432)">
        <path
           id="path4219"
           d="m 313.30156,376.86791 c 0,0 14.66875,23.11762 30.1598,29.44276 36.06834,14.72703 105.79585,7.11678 116.87725,0 11.47261,-7.36803 20.09917,-13.15884 31.57178,-31.54969 -50.50005,12.33494 -99.52386,20.28316 -178.60883,2.10693 z"
           style="fill:#88564d;fill-opacity:1;fill-rule:evenodd;stroke:#88564d;stroke-width:1.42302907;stroke-linecap:butt;stroke-linejoin:round;stroke-miterlimit:4;stroke-dasharray:none;stroke-opacity:1" />
        <path
           id="path4221"
           d="m 322.25958,390.57929 c 52.25249,9.95543 105.34465,7.98264 158.94612,-0.94757 0.0401,0.0201 -6.77666,12.24744 -30.20904,22.10735 0,0 -73.34034,11.74109 -107.4888,-3.80267 -8.3969,-3.82212 -21.24828,-17.35711 -21.24828,-17.35711 z"
           style="fill:url(#linearGradient4237);fill-opacity:1;fill-rule:evenodd;stroke:none;stroke-width:1px;stroke-linecap:butt;stroke-linejoin:miter;stroke-opacity:1" />
      </g>
      <path
         style="fill:none;fill-rule:evenodd;stroke:#cfebea;stroke-width:2;stroke-linecap:round;stroke-linejoin:round;stroke-miterlimit:4;stroke-dasharray:none;stroke-opacity:0.4545455;filter:url(#filter4297)"
         d="m 157.21065,398.42325 c 29.90884,5.55317 59.77978,5.13238 88.7335,0.17926"
         id="path4255" />
      <path
         style="opacity:0.83499995;fill:none;fill-rule:evenodd;stroke:#02a9a9;stroke-width:1px;stroke-linecap:round;stroke-linejoin:round;stroke-opacity:1"
         d="m 145.83938,393.20765 c 33.77941,8.28537 80.3438,5.40966 111.96452,0.52743"
         id="path4301" />
      <path
         id="path4655"
         d="m 265.02812,382.68541 c -35.48771,8.66809 -70.07624,13.97806 -125.65133,1.20515 l 4.52216,6.68919 c 0.23712,1.30856 79.54004,8.05298 116.20864,-0.86328 2.43198,-2.73597 2.18415,-2.64457 4.92053,-7.03106 z"
         style="opacity:0.48600003;fill:#e6e6e6;fill-opacity:1;fill-rule:evenodd;stroke:none;stroke-width:1;stroke-linecap:butt;stroke-linejoin:round;stroke-miterlimit:4;stroke-dasharray:none;stroke-opacity:1;filter:url(#filter4765)" />
      <rect
         y="366.51505"
         x="159.18251"
         height="10.038537"
         width="53.419353"
         id="rect4307"
         style="opacity:1;fill:#333333;fill-opacity:1;stroke:none;stroke-width:1;stroke-linecap:round;stroke-linejoin:round;stroke-miterlimit:4;stroke-dasharray:none;stroke-dashoffset:0;stroke-opacity:0.4545455;filter:url(#filter4329)"
         transform="matrix(0.90180638,0,0,0.75271186,18.253421,94.021779)" />
      <g
         id="g4594"
         style="opacity:0.49599998;fill:#999999;filter:url(#filter4604)"
         transform="matrix(0.57814328,0,0,0.99678582,76.817594,1.1106345)">
        <rect
           style="opacity:1;fill:#999999;fill-opacity:1;stroke:none;stroke-width:1.56200004;stroke-linecap:round;stroke-linejoin:round;stroke-miterlimit:4;stroke-dasharray:none;stroke-dashoffset:0;stroke-opacity:1"
           id="rect4596"
           width="0.83913815"
           height="42.30526"
           x="180.04187"
           y="324.38904" />
        <rect
           y="324.38904"
           x="180.89297"
           height="42.30526"
           width="0.83913815"
           id="rect4598"
           style="opacity:1;fill:#999999;fill-opacity:1;stroke:none;stroke-width:1.56200004;stroke-linecap:round;stroke-linejoin:round;stroke-miterlimit:4;stroke-dasharray:none;stroke-dashoffset:0;stroke-opacity:1" />
      </g>
      <g
         transform="translate(0.26909703,0)"
         id="g4898"
         style="opacity:0.31100003;fill:#b3b3b3;filter:url(#filter4908)">
        <rect
           style="opacity:1;fill:#b3b3b3;fill-opacity:1;stroke:none;stroke-width:1.56200004;stroke-linecap:round;stroke-linejoin:round;stroke-miterlimit:4;stroke-dasharray:none;stroke-dashoffset:0;stroke-opacity:1"
           id="rect4900"
           width="0.83913815"
           height="42.30526"
           x="180.04187"
           y="324.38904" />
        <rect
           y="324.38904"
           x="180.89297"
           height="42.30526"
           width="0.83913815"
           id="rect4902"
           style="opacity:1;fill:#b3b3b3;fill-opacity:1;stroke:none;stroke-width:1.56200004;stroke-linecap:round;stroke-linejoin:round;stroke-miterlimit:4;stroke-dasharray:none;stroke-dashoffset:0;stroke-opacity:1" />
      </g>
      <g
         id="g4823"
         transform="translate(0.26909703,0)">
        <rect
           y="324.38904"
           x="180.04187"
           height="42.30526"
           width="0.83913815"
           id="rect4580"
           style="opacity:1;fill:#9fb4b4;fill-opacity:1;stroke:none;stroke-width:1.56200004;stroke-linecap:round;stroke-linejoin:round;stroke-miterlimit:4;stroke-dasharray:none;stroke-dashoffset:0;stroke-opacity:1" />
        <rect
           style="opacity:1;fill:#a9c6c6;fill-opacity:1;stroke:none;stroke-width:1.56200004;stroke-linecap:round;stroke-linejoin:round;stroke-miterlimit:4;stroke-dasharray:none;stroke-dashoffset:0;stroke-opacity:1"
           id="rect4582"
           width="0.83913815"
           height="42.30526"
           x="180.89297"
           y="324.38904" />
      </g>
      <rect
         y="363.21439"
         x="166.57388"
         height="6.0572324"
         width="32.764118"
         id="rect4880"
         style="opacity:1;fill:#999999;fill-opacity:1;stroke:none;stroke-width:0.2;stroke-linecap:round;stroke-linejoin:round;stroke-miterlimit:4;stroke-dasharray:none;stroke-dashoffset:0;stroke-opacity:1;filter:url(#filter4882)"
         transform="matrix(1.0018994,0,0,0.88170932,-0.34751104,43.712506)" />
      <rect
         style="opacity:1;fill:#8da9a6;fill-opacity:1;stroke:none;stroke-width:0.2;stroke-linecap:round;stroke-linejoin:round;stroke-miterlimit:4;stroke-dasharray:none;stroke-dashoffset:0;stroke-opacity:1"
         id="rect4878"
         width="32.764118"
         height="6.0572324"
         x="166.57388"
         y="363.21439" />
      <rect
         style="opacity:1;fill:#9eb3b3;fill-opacity:1;stroke:none;stroke-width:1;stroke-linecap:round;stroke-linejoin:round;stroke-miterlimit:4;stroke-dasharray:none;stroke-dashoffset:0;stroke-opacity:0.4545455"
         id="rect4305"
         width="53.419353"
         height="10.038537"
         x="159.18251"
         y="366.51505" />
      <ellipse
         style="opacity:0.46100003;fill:none;fill-opacity:1;stroke:#899a9a;stroke-width:0.96182966;stroke-linecap:round;stroke-linejoin:round;stroke-miterlimit:4;stroke-dasharray:none;stroke-dashoffset:0;stroke-opacity:0.4545455"
         id="path4526"
         cx="174.79605"
         cy="383.40918"
         rx="4.3856874"
         ry="4.2589321" />
      <path
         id="path4769"
         d="m 265.02812,382.68541 c -35.48771,8.66809 -70.07624,13.97806 -125.65133,1.20515 l 4.52216,6.68919 c 0.23712,1.30856 79.54004,8.05298 116.20864,-0.86328 2.43198,-2.73597 2.18415,-2.64457 4.92053,-7.03106 z"
         style="opacity:1;fill:#4d4d4d;fill-opacity:1;fill-rule:evenodd;stroke:none;stroke-width:1;stroke-linecap:butt;stroke-linejoin:round;stroke-miterlimit:4;stroke-dasharray:none;stroke-opacity:1;filter:url(#filter4787)"
         transform="matrix(0.90494382,0,0,0.6304279,19.220593,145.80661)" />
      <path
         style="opacity:1;fill:#899d9a;fill-opacity:1;fill-rule:evenodd;stroke:#899d9a;stroke-width:1;stroke-linecap:butt;stroke-linejoin:round;stroke-miterlimit:4;stroke-dasharray:none;stroke-opacity:1"
         d="m 265.02812,382.68541 c -35.48771,8.66809 -70.07624,13.97806 -125.65133,1.20515 l 4.52216,6.68919 c 0.23712,1.30856 79.54004,8.05298 116.20864,-0.86328 2.43198,-2.73597 2.18415,-2.64457 4.92053,-7.03106 z"
         id="path4219-6" />
      <g
         id="g4937"
         style="opacity:0.222;fill:#b1a16f;fill-opacity:1;filter:url(#filter4971)"
         transform="matrix(1.3413393,0,0,1.3855325,-61.835698,-125.30763)">
        <g
           id="g4939"
           transform="matrix(0.77798631,0,0,1.0494196,40.21968,-16.469442)"
           style="fill:#b1a16f;fill-opacity:1">
          <ellipse
             ry="1.6791738"
             rx="1.3384719"
             cy="322.603"
             cx="181.18042"
             id="ellipse4941"
             style="opacity:1;fill:#b1a16f;fill-opacity:1;stroke:none;stroke-width:0.2;stroke-linecap:round;stroke-linejoin:round;stroke-miterlimit:4;stroke-dasharray:none;stroke-dashoffset:0;stroke-opacity:1;filter:url(#filter4853)" />
          <ellipse
             transform="matrix(0.62987093,0,0,0.62987093,67.060141,119.40475)"
             style="opacity:0.09599998;fill:#b1a16f;fill-opacity:1;stroke:none;stroke-width:0.2;stroke-linecap:round;stroke-linejoin:round;stroke-miterlimit:4;stroke-dasharray:none;stroke-dashoffset:0;stroke-opacity:1;filter:url(#filter4853)"
             id="ellipse4943"
             cx="181.18042"
             cy="322.603"
             rx="1.3384719"
             ry="1.6791738" />
        </g>
        <path
           style="opacity:0.50700001;fill:#b1a16f;fill-opacity:1;fill-rule:evenodd;stroke:#eef4f4;stroke-width:0.15022843;stroke-linecap:butt;stroke-linejoin:round;stroke-miterlimit:4;stroke-dasharray:none;stroke-opacity:1"
           d="m 181.04398,323.9544 0,-4.02097 c 0,-0.65235 -2.60771,1.43816 -2.60771,1.43816 l 0.41477,2.54311 z"
           id="path4945" />
        <path
           id="path4947"
           d="m 181.18494,323.9544 0,-4.02097 c 0,-0.65235 2.60771,1.43816 2.60771,1.43816 l -0.41477,2.54311 z"
           style="opacity:0.744;fill:#b1a16f;fill-opacity:1;fill-rule:evenodd;stroke:#eef4f4;stroke-width:0.15022843;stroke-linecap:butt;stroke-linejoin:round;stroke-miterlimit:4;stroke-dasharray:none;stroke-opacity:1" />
        <rect
           style="opacity:1;fill:#b1a16f;fill-opacity:1;stroke:none;stroke-width:1.56200004;stroke-linecap:round;stroke-linejoin:round;stroke-miterlimit:4;stroke-dasharray:none;stroke-dashoffset:0;stroke-opacity:1"
           id="rect4949"
           width="6.0784783"
           height="0.77268785"
           x="178.11685"
           y="323.9147" />
        <path
           style="opacity:0.11100003;fill:#b1a16f;fill-opacity:1;fill-rule:evenodd;stroke:none;stroke-width:1px;stroke-linecap:butt;stroke-linejoin:miter;stroke-opacity:1"
           d="m 178.81821,321.64787 1.05204,-0.85723 c -0.0142,0.89619 -0.0674,1.79238 0.27276,2.68856 0,0 -0.44351,0.20328 -0.6624,0 -0.51534,-0.47857 -0.6624,-1.83133 -0.6624,-1.83133 z"
           id="path4951" />
        <path
           id="path4953"
           d="m 183.34524,321.64787 -1.05204,-0.85723 c 0.0142,0.89619 0.0674,1.79238 -0.27275,2.68856 0,0 0.4435,0.20328 0.6624,0 0.51533,-0.47857 0.66239,-1.83133 0.66239,-1.83133 z"
           style="opacity:0.056;fill:#b1a16f;fill-opacity:1;fill-rule:evenodd;stroke:none;stroke-width:1px;stroke-linecap:butt;stroke-linejoin:miter;stroke-opacity:1" />
      </g>
      <g
         id="g4927">
        <g
           transform="matrix(0.77798631,0,0,1.0494196,40.21968,-16.469442)"
           id="g4859">
          <ellipse
             style="opacity:1;fill:#ececec;fill-opacity:1;stroke:none;stroke-width:0.2;stroke-linecap:round;stroke-linejoin:round;stroke-miterlimit:4;stroke-dasharray:none;stroke-dashoffset:0;stroke-opacity:1;filter:url(#filter4853)"
             id="path4831"
             cx="181.18042"
             cy="322.603"
             rx="1.3384719"
             ry="1.6791738" />
          <ellipse
             ry="1.6791738"
             rx="1.3384719"
             cy="322.603"
             cx="181.18042"
             id="ellipse4857"
             style="opacity:0.09599998;fill:#b08640;fill-opacity:1;stroke:none;stroke-width:0.2;stroke-linecap:round;stroke-linejoin:round;stroke-miterlimit:4;stroke-dasharray:none;stroke-dashoffset:0;stroke-opacity:1;filter:url(#filter4853)"
             transform="matrix(0.62987093,0,0,0.62987093,67.060141,119.40475)" />
        </g>
        <path
           id="path4827"
           d="m 181.04398,323.9544 0,-4.02097 c 0,-0.65235 -2.60771,1.43816 -2.60771,1.43816 l 0.41477,2.54311 z"
           style="opacity:0.50700001;fill:#e6e6e6;fill-rule:evenodd;stroke:#eef4f4;stroke-width:0.15022843;stroke-linecap:butt;stroke-linejoin:round;stroke-miterlimit:4;stroke-dasharray:none;stroke-opacity:1" />
        <path
           style="opacity:0.744;fill:#e6e6e6;fill-rule:evenodd;stroke:#eef4f4;stroke-width:0.15022843;stroke-linecap:butt;stroke-linejoin:round;stroke-miterlimit:4;stroke-dasharray:none;stroke-opacity:1"
           d="m 181.18494,323.9544 0,-4.02097 c 0,-0.65235 2.60771,1.43816 2.60771,1.43816 l -0.41477,2.54311 z"
           id="path4829" />
        <rect
           y="323.9147"
           x="178.11685"
           height="0.77268785"
           width="6.0784783"
           id="rect4821"
           style="opacity:1;fill:#999999;fill-opacity:1;stroke:none;stroke-width:1.56200004;stroke-linecap:round;stroke-linejoin:round;stroke-miterlimit:4;stroke-dasharray:none;stroke-dashoffset:0;stroke-opacity:1" />
        <path
           id="path4863"
           d="m 178.81821,321.64787 1.05204,-0.85723 c -0.0142,0.89619 -0.0674,1.79238 0.27276,2.68856 0,0 -0.44351,0.20328 -0.6624,0 -0.51534,-0.47857 -0.6624,-1.83133 -0.6624,-1.83133 z"
           style="opacity:0.11100003;fill:#ffb380;fill-opacity:1;fill-rule:evenodd;stroke:none;stroke-width:1px;stroke-linecap:butt;stroke-linejoin:miter;stroke-opacity:1" />
        <path
           style="opacity:0.056;fill:#ffb380;fill-opacity:1;fill-rule:evenodd;stroke:none;stroke-width:1px;stroke-linecap:butt;stroke-linejoin:miter;stroke-opacity:1"
           d="m 183.34524,321.64787 -1.05204,-0.85723 c 0.0142,0.89619 0.0674,1.79238 -0.27275,2.68856 0,0 0.4435,0.20328 0.6624,0 0.51533,-0.47857 0.66239,-1.83133 0.66239,-1.83133 z"
           id="path4865" />
      </g>
    </g>
  </g>
</svg>
